<?xml version="1.0" encoding="utf-8"?>
<svg width="119.366" height="52.06" viewBox="1.414 1.12 36.617 28.88" xmlns="http://www.w3.org/2000/svg">
  <defs>
    <style>.a{fill:#e27866;}</style>
  </defs>
  <path class="a" d="M 38.003 8.897 C 38.001 8.877 37.997 8.858 37.991 8.839 C 37.958 8.801 38.036 8.839 37.871 8.646 C 37.861 8.636 37.851 8.626 37.841 8.618 C 37.805 8.584 37.762 8.558 37.715 8.544 C 37.659 8.519 37.599 8.507 37.538 8.509 L 37.507 8.509 C 37.481 8.51 37.455 8.514 37.43 8.52 C 37.312 8.547 37.197 8.585 37.087 8.633 C 33.458 10.035 29.715 11.119 25.9 11.874 C 24.362 9.588 22.971 7.207 21.735 4.745 C 21.224 3.727 20.835 2.893 20.571 2.309 C 20.438 2.018 20.336 1.792 20.264 1.632 C 20.228 1.551 20.198 1.49 20.174 1.439 C 20.161 1.411 20.146 1.385 20.129 1.36 C 20.116 1.336 20.1 1.313 20.082 1.293 C 20.035 1.274 20.053 1.169 19.729 1.124 C 19.392 1.169 19.408 1.274 19.363 1.293 C 19.279 1.416 19.209 1.548 19.155 1.687 C 17.582 5.239 15.704 8.648 13.542 11.875 C 10.864 11.349 8.221 10.658 5.63 9.804 C 4.55 9.448 3.682 9.131 3.071 8.904 C 2.771 8.789 2.526 8.697 2.353 8.634 C 2.235 8.581 2.113 8.542 1.987 8.517 C 1.961 8.513 1.936 8.51 1.91 8.509 L 1.9 8.509 C 1.841 8.505 1.783 8.516 1.73 8.541 C 1.715 8.547 1.699 8.553 1.683 8.561 C 1.642 8.584 1.604 8.612 1.57 8.644 C 1.534 8.675 1.505 8.713 1.486 8.756 C 1.453 8.814 1.435 8.878 1.433 8.945 C 1.433 8.975 1.433 8.975 1.433 8.977 C 1.451 9.133 1.494 9.286 1.561 9.429 C 3.054 13.285 4.186 17.271 4.941 21.336 C 5.79 24.766 7.248 27.881 10.232 29.213 C 11.257 29.684 12.375 29.924 13.504 29.913 C 15.816 29.899 18.038 29.012 19.724 27.429 C 21.408 29.012 23.629 29.899 25.941 29.912 C 27.074 29.924 28.196 29.685 29.226 29.212 C 32.198 27.886 33.657 24.769 34.5 21.368 C 35.037 18.434 35.777 15.541 36.714 12.709 C 37.07 11.629 37.384 10.761 37.614 10.151 C 37.726 9.846 37.814 9.605 37.884 9.431 C 37.928 9.323 37.965 9.213 37.994 9.1 C 38.005 9.061 38.01 9.02 38.01 8.98 C 38.011 8.952 38.009 8.924 38.003 8.897 Z M 25.547 13.006 C 26.798 14.852 27.535 16.998 27.682 19.223 C 27.686 19.987 27.548 20.746 27.274 21.46 C 26.172 24.132 23.69 25.982 20.815 26.274 C 22.114 24.657 22.826 22.648 22.836 20.574 C 22.847 19.44 22.606 18.317 22.13 17.288 C 21.731 16.416 21.161 15.634 20.453 14.988 C 21.944 14.005 23.603 13.305 25.348 12.923 L 25.477 12.898 C 25.5 12.938 25.524 12.971 25.548 13.006 L 25.547 13.006 Z M 13.964 12.906 L 14.074 12.927 C 15.826 13.308 17.493 14.01 18.991 14.997 C 18.279 15.647 17.706 16.433 17.305 17.31 C 16.832 18.336 16.593 19.454 16.605 20.583 C 16.614 22.657 17.328 24.667 18.629 26.283 C 15.757 25.993 13.276 24.149 12.172 21.483 C 11.895 20.766 11.755 20.003 11.759 19.235 C 11.907 17.001 12.649 14.847 13.908 12.996 C 13.927 12.958 13.945 12.93 13.965 12.902 L 13.964 12.906 Z M 21.288 17.685 C 21.707 18.593 21.919 19.584 21.908 20.585 C 21.893 22.639 21.113 24.613 19.72 26.122 C 18.325 24.614 17.544 22.638 17.53 20.584 C 17.52 19.589 17.73 18.604 18.145 17.699 C 18.513 16.889 19.05 16.167 19.721 15.583 C 20.387 16.162 20.922 16.877 21.289 17.681 L 21.288 17.685 Z M 19.716 2.694 L 19.722 2.682 C 21.203 5.948 22.942 9.091 24.922 12.082 C 23.058 12.504 21.292 13.281 19.722 14.371 C 18.151 13.281 16.386 12.504 14.522 12.082 C 15.999 9.857 17.34 7.546 18.539 5.16 C 19.054 4.131 19.448 3.283 19.716 2.694 Z M 10.616 28.371 C 8.047 27.244 6.661 24.455 5.843 21.143 C 5.3 18.186 4.553 15.27 3.609 12.416 C 3.247 11.321 2.926 10.44 2.696 9.823 C 2.686 9.797 2.677 9.77 2.667 9.745 C 6.025 11.008 9.478 12.002 12.995 12.716 C 11.713 14.657 10.967 16.903 10.832 19.225 C 10.828 20.103 10.988 20.974 11.303 21.794 C 12.533 24.807 15.336 26.888 18.577 27.194 C 17.133 28.341 15.347 28.97 13.504 28.981 C 12.508 28.993 11.523 28.785 10.618 28.371 L 10.616 28.371 Z M 33.59 21.171 C 32.78 24.455 31.39 27.244 28.836 28.365 C 27.927 28.784 26.936 28.996 25.936 28.986 C 24.091 28.975 22.304 28.346 20.861 27.198 C 24.107 26.891 26.913 24.804 28.141 21.783 C 28.451 20.966 28.609 20.098 28.605 19.224 C 28.469 16.902 27.724 14.657 26.443 12.716 C 29.032 12.192 31.588 11.514 34.097 10.687 C 35.197 10.325 36.074 10.004 36.69 9.774 L 36.77 9.745 C 35.374 13.451 34.312 17.275 33.595 21.17 L 33.59 21.171 Z"/>
</svg>